# Blender v2.78 (sub 0) OBJ File: ''
# www.blender.org
mtllib testcube.mtl
o Cube
v 0.367616 0.076151 -0.034868
v 0.833022 0.970084 0.616499
v -0.268611 1.281463 0.976288
v -0.734017 0.387529 0.324921
v 0.268611 0.813664 -0.976288
v 0.734017 1.707598 -0.324921
v -0.367616 2.018976 0.034868
v -0.833022 1.125043 -0.616499
vn 0.0825 -0.6146 0.7845
vn -0.0825 0.6146 -0.7845
vn 0.9180 -0.2595 -0.2998
vn 0.3878 0.7449 0.5428
vn -0.9180 0.2595 0.2998
vn -0.3878 -0.7449 -0.5428
usemtl Material
s off
f 1//1 2//1 3//1 4//1
f 5//2 8//2 7//2 6//2
f 1//3 5//3 6//3 2//3
f 2//4 6//4 7//4 3//4
f 3//5 7//5 8//5 4//5
f 5//6 1//6 4//6 8//6
